<svg width="97" height="40" viewBox="0 0 97 40" fill="none" xmlns="http://www.w3.org/2000/svg">
<g id="Arch 3">
<path id="Subtract" fill-rule="evenodd" clip-rule="evenodd" d="M13.0822 33.0137L10.8219 39.2694H0L15.3425 1.59814H24.6575L40 39.2694H29.1781L26.9178 33.0137H13.0822ZM20 15.2511L16.5068 24.2009H23.4931L20 15.2511Z" fill="#1B1D23"/>
<path id="Path" d="M45.2968 39.2695V27.8083C45.2968 27.0321 45.5175 26.3091 45.9589 25.6394C46.4003 24.9697 46.9825 24.4255 47.7055 24.0069C48.4284 23.5884 49.1933 23.3791 50 23.3791C50.6393 23.3791 51.3432 23.5085 52.1119 23.7672C52.8805 24.026 53.5464 24.3684 54.1096 24.7946V24.7946L58.0822 16.8037C57.4277 16.3167 56.5982 15.9209 55.5936 15.6165C54.589 15.3121 53.6377 15.1599 52.7397 15.1599C51.3546 15.1599 50.0114 15.5138 48.71 16.2216C47.4087 16.9293 46.2709 17.9149 45.2968 19.1782V19.1782V15.8905H35.7991V39.2695H45.2968Z" fill="#1B1D23"/>
<path id="Path_2" d="M64.2923 40.0001C65.7992 40.0001 67.2337 39.7908 68.596 39.3722C69.9582 38.9537 71.0351 38.4628 71.8266 37.8996V37.8996L68.7215 31.5069C68.4323 31.7048 68.0328 31.8837 67.5229 32.0435C67.013 32.2033 66.4537 32.2832 65.8448 32.2832C64.8555 32.2832 63.9955 32.0663 63.2649 31.6325C62.5343 31.1987 61.975 30.6241 61.5868 29.9088C61.1987 29.1934 61.0046 28.4171 61.0046 27.58C61.0046 26.9103 61.1683 26.2101 61.4955 25.4795C61.8228 24.749 62.3403 24.1325 63.048 23.6302C63.7558 23.1279 64.6728 22.8768 65.7992 22.8768C66.9864 22.8768 67.9605 23.1356 68.7215 23.6531V23.6531L71.8266 17.2604C71.0655 16.682 69.9849 16.1873 68.5846 15.7764C67.1843 15.3654 65.7383 15.1599 64.2467 15.1599C62.3441 15.1599 60.5823 15.5062 58.9613 16.1987C57.3403 16.8913 55.9323 17.8273 54.7375 19.0069C53.5427 20.1865 52.6142 21.5184 51.9521 23.0024C51.29 24.4864 50.959 26.0199 50.959 27.6028C50.959 29.2923 51.3129 30.8867 52.0206 32.3859C52.7284 33.8852 53.6987 35.2056 54.9316 36.3471C56.1645 37.4887 57.5838 38.3829 59.1896 39.0298C60.7954 39.6767 62.4963 40.0001 64.2923 40.0001Z" fill="#1B1D23"/>
<path id="Path_3" d="M78.9955 39.2694V26.3927C78.9955 25.6012 79.1553 24.9163 79.475 24.3379C79.7946 23.7595 80.2436 23.3105 80.822 22.9909C81.4004 22.6712 82.0701 22.5114 82.8311 22.5114C83.9879 22.5114 84.9164 22.8653 85.6165 23.5731C86.3167 24.2808 86.6668 25.2207 86.6668 26.3927V26.3927V39.2694H96.1645V24.3379C96.1645 22.5875 95.7535 21.0236 94.9316 19.6461C94.1097 18.2686 92.9948 17.1766 91.5868 16.3699C90.1789 15.5632 88.5846 15.1598 86.8037 15.1598C85.4034 15.1598 84.0222 15.4148 82.6599 15.9247C81.2977 16.4346 80.0762 17.1537 78.9955 18.0822V18.0822V0H69.4978V39.2694H78.9955Z" fill="#1B1D23"/>
</g>
</svg>
