<svg width="76" height="71" viewBox="0 0 76 71" fill="none" xmlns="http://www.w3.org/2000/svg">
<rect width="76" height="71" rx="5" fill="white"/>
<path fill-rule="evenodd" clip-rule="evenodd" d="M22.0822 47.4155L19.8219 53.6712H9L24.3425 16H33.6575L49 53.6712H38.1781L35.9178 47.4155H22.0822ZM29 29.653L25.5068 38.6027H32.4931L29 29.653Z" fill="#1B1D23"/>
<path d="M54.2968 53.6714V42.2102C54.2968 41.4339 54.5175 40.7109 54.9589 40.0412C55.4003 39.3715 55.9825 38.8274 56.7055 38.4088C57.4284 37.9902 58.1933 37.7809 59 37.7809C59.6393 37.7809 60.3432 37.9103 61.1119 38.1691C61.8805 38.4278 62.5464 38.7703 63.1096 39.1965V39.1965L67.0822 31.2056C66.4277 30.7185 65.5982 30.3228 64.5936 30.0184C63.589 29.714 62.6377 29.5618 61.7397 29.5618C60.3546 29.5618 59.0114 29.9156 57.71 30.6234C56.4087 31.3312 55.2709 32.3167 54.2968 33.58V33.58V30.2924H44.7991V53.6714H54.2968Z" fill="#1B1D23"/>
</svg>
